<svg width="124" height="124" viewBox="0 0 124 124" fill="none" xmlns="http://www.w3.org/2000/svg">
<path d="M18.7493 108.183H31.5005C33.3163 108.183 34.7883 106.711 34.7883 104.896V76.0885C34.7883 74.2736 33.3161 72.8022 31.5005 72.8022H18.7493C16.9336 72.8022 15.4616 74.2738 15.4616 76.0885V104.896C15.4616 106.711 16.9338 108.183 18.7493 108.183Z" fill="#5A3E8B"/>
<path d="M47.7398 108.183H60.491C62.3067 108.183 63.7787 106.711 63.7787 104.896V56.7702C63.7787 54.9553 62.3065 53.4839 60.491 53.4839H47.7398C45.924 53.4839 44.452 54.9555 44.452 56.7702V104.896C44.452 106.711 45.9242 108.183 47.7398 108.183Z" fill="#5A3E8B"/>
<path d="M76.7302 108.183H89.4814C91.2972 108.183 92.7692 106.711 92.7692 104.896V33.5883C92.7692 31.7733 91.2969 30.302 89.4814 30.302H76.7302C74.9144 30.302 73.4424 31.7735 73.4424 33.5883V104.896C73.4424 106.711 74.9147 108.183 76.7302 108.183Z" fill="#5A3E8B"/>
<path d="M105.721 108.183H118.472C120.288 108.183 121.76 106.711 121.76 104.896V10.4063C121.76 8.59134 120.287 7.12 118.472 7.12H105.721C103.905 7.12 102.433 8.59158 102.433 10.4063V104.896C102.433 106.711 103.905 108.183 105.721 108.183Z" fill="#5A3E8B"/>
<path d="M120.405 116.393H11.0185C9.20301 116.393 7.73078 114.921 7.73078 113.107V3.28629C7.73078 1.47157 6.25855 0 4.44303 0H3.288C1.47223 0 0 1.47157 0 3.28629V120.351C0 122.166 1.47223 123.637 3.28776 123.637H120.405C122.22 123.637 123.692 122.166 123.692 120.351V119.679C123.693 117.864 122.22 116.393 120.405 116.393Z" fill="#5A3E8B"/>
</svg>
