<svg width="120" height="120" viewBox="0 0 120 120" fill="none" xmlns="http://www.w3.org/2000/svg">
<g clip-path="url(#clip0_208_176)">
<path d="M72.1197 58.8192H67.6765L49.3694 81.9774L31.062 58.8192H26.6188C17.9218 58.8192 10.8462 65.897 10.8462 74.5967V119.712H57.5076V74.6579H58.6902H87.8925V74.5967C87.8923 65.8972 80.8167 58.8192 72.1197 58.8192ZM38.1622 81.7562H19.1435V74.6579H38.1622V81.7562Z" fill="#5A3E8B"/>
<path d="M49.3688 61.5737C46.6463 61.5737 44.0048 61.2216 41.4858 60.5624L49.3688 70.5342L57.2517 60.5624C54.733 61.2216 52.0914 61.5737 49.3688 61.5737Z" fill="#5A3E8B"/>
<path d="M64.139 0.620972H34.5988C29.4713 0.620972 25.2996 4.79406 25.2996 9.92313V13.9622H73.438V9.92313C73.4382 4.79406 69.2664 0.620972 64.139 0.620972Z" fill="#5A3E8B"/>
<path d="M25.2996 21.0603V30.3988C25.2996 43.6747 36.097 54.4755 49.3688 54.4755C62.6406 54.4755 73.438 43.6747 73.438 30.3988V21.0603H25.2996Z" fill="#5A3E8B"/>
<path d="M100.131 81.7562V92.6985H93.0347V81.7562H80.464V92.6985H73.3682V81.7562H65.7857H64.603V119.712H108.896V81.7562H100.131Z" fill="#5A3E8B"/>
<path d="M80.5341 13.9623H73.4382V21.0603H80.5341H91.8517V13.9623H80.5341Z" fill="#5A3E8B"/>
</g>
<defs>
<clipPath id="clip0_208_176">
<rect width="119.054" height="119.092" fill="white" transform="translate(0.34375 0.620972)"/>
</clipPath>
</defs>
</svg>
