<svg width="109" height="108" viewBox="0 0 109 108" fill="none" xmlns="http://www.w3.org/2000/svg">
<g clip-path="url(#clip0_208_54)">
<path d="M0.924316 0.261475V7.93654H8.59699L16.2697 84.6872H92.9964V77.0122H23.9423L22.9833 69.3371H92.9964L108.342 23.2867H18.9072L16.2697 0.261475H0.924316ZM23.9423 92.3623C19.7048 92.3623 16.2697 95.7986 16.2697 100.037C16.2697 104.276 19.7048 107.712 23.9423 107.712C28.1798 107.712 31.615 104.276 31.615 100.037C31.615 95.7986 28.1798 92.3623 23.9423 92.3623ZM85.3238 92.3623C81.0863 92.3623 77.6511 95.7986 77.6511 100.037C77.6511 104.276 81.0863 107.712 85.3238 107.712C89.5613 107.712 92.9964 104.276 92.9964 100.037C92.9964 95.7986 89.5613 92.3623 85.3238 92.3623Z" fill="#5A3E8B"/>
</g>
<defs>
<clipPath id="clip0_208_54">
<rect width="107.417" height="107.451" fill="white" transform="translate(0.924316 0.261475)"/>
</clipPath>
</defs>
</svg>
