<svg width="80" height="80" viewBox="0 0 80 80" fill="none" xmlns="http://www.w3.org/2000/svg">
<path d="M80 44.088C79.8623 43.8552 76.5897 38.0395 70.0003 32.1159C66.7025 29.1578 62.5653 26.1737 57.5523 23.9137C52.5459 21.6552 46.655 20.1352 39.9997 20.1384C33.3442 20.1362 27.4534 21.6552 22.4464 23.9137C14.9277 27.3078 9.37984 32.3127 5.67609 36.4519C1.97297 40.6009 0.100625 43.912 0 44.088L4.58297 46.6636L6.71984 47.8744L6.72359 47.8678L6.72469 47.8656C6.86453 47.6111 9.90031 42.4456 15.5508 37.5022C18.3739 35.0259 21.8389 32.6067 25.9061 30.8169C29.9781 29.0269 34.642 27.8544 39.9997 27.8522C45.4847 27.8544 50.2436 29.0836 54.3834 30.9456C60.5842 33.7344 65.3716 38.0036 68.5722 41.5911C70.173 43.382 71.375 44.995 72.1628 46.138C72.5573 46.7094 72.848 47.1639 73.0337 47.4645C73.1266 47.6155 73.1931 47.7269 73.2347 47.7956L73.2741 47.8656L73.2806 47.8755L74.7973 47.0133L73.2764 47.8678L80 44.088Z" fill="#D9D9D9"/>
<path d="M39.9998 32.8655C32.5451 32.8655 26.5017 38.9083 26.5017 46.3641C26.5017 53.8188 32.5451 59.8616 39.9998 59.8616C47.4545 59.8616 53.498 53.8188 53.498 46.3641C53.4978 38.9084 47.4544 32.8655 39.9998 32.8655Z" fill="#D9D9D9"/>
</svg>
